name D:\PhD\Datasets\SharingData_IBEC_VALDUCE\DC_Comp_0001.mot
datacolumns 46
datarows 7
range 7.51000000 7.57000000
endheader
                time	         pelvis_tilt	     pelvis_rotation	           pelvis_tx	           pelvis_ty	           pelvis_tz	       hip_flexion_r	     hip_adduction_r	      hip_rotation_r	        knee_angle_r	       ankle_angle_r	    subtalar_angle_r	         mtp_angle_r	       hip_flexion_l	     hip_adduction_l	      hip_rotation_l	        knee_angle_l	       ankle_angle_l	    subtalar_angle_l	         mtp_angle_l	    lumbar_extension	      lumbar_bending	     lumbar_rotation	          arm_flex_r	           arm_add_r	           arm_rot_r	        elbow_flex_r	           pro_sup_r	        wrist_flex_r	         wrist_dev_r	          arm_flex_l	           arm_add_l	           arm_rot_l	        elbow_flex_l	           pro_sup_l	        wrist_flex_l	         wrist_dev_l	          end_eff_tx	          end_eff_ty	          end_eff_tz	             goal_tx	             goal_ty	             goal_tz	            elbow_tx	            elbow_ty	            elbow_tz	
          7.51000000	          0.00000000	          0.00000000	        488.16821536	        409.79560926	        309.97416929	          0.00000000	          0.00000000	          0.00000000	          0.00000000	          0.00000000	          0.00000000	          0.00000000	          0.00000000	          0.00000000	          0.00000000	          0.00000000	          0.00000000	          0.00000000	          0.00000000	        -24.08410263	         -6.67170382	         10.41292095	         60.63872147	        -30.76731491	         51.34466171	         87.54323578	         78.77820587	          0.00000000	          0.00000000	          0.00000000	          0.00000000	          0.00000000	          0.00000000	          0.00000000	          0.00000000	          0.00000000	        926.81291330	        308.28473330	        179.95029768	        912.35906444	        392.52143491	        193.34097383	        745.94694644	        313.61813976	        554.00125876	
          7.52000000	          0.00000000	          0.00000000	        487.37069618	        410.31523436	        310.07681313	          0.00000000	          0.00000000	          0.00000000	          0.00000000	          0.00000000	          0.00000000	          0.00000000	          0.00000000	          0.00000000	          0.00000000	          0.00000000	          0.00000000	          0.00000000	          0.00000000	        -23.97813988	         -6.58238029	         10.36335564	         60.38773346	        -30.72795868	         51.37203979	         87.55349731	         79.31693268	          0.00000000	          0.00000000	          0.00000000	          0.00000000	          0.00000000	          0.00000000	          0.00000000	          0.00000000	          0.00000000	        924.86504031	        308.25519641	        180.35171905	        910.49040259	        392.51995831	        193.77844470	        743.92357614	        313.63747285	        554.48831915	
          7.53000000	          0.00000000	          0.00000000	        486.53074066	        410.80301882	        310.20707240	          0.00000000	          0.00000000	          0.00000000	          0.00000000	          0.00000000	          0.00000000	          0.00000000	          0.00000000	          0.00000000	          0.00000000	          0.00000000	          0.00000000	          0.00000000	          0.00000000	        -23.86182404	         -6.58061886	         10.33383083	         60.17571640	        -30.68334198	         51.34593582	         87.58892822	         79.33026123	          0.00000000	          0.00000000	          0.00000000	          0.00000000	          0.00000000	          0.00000000	          0.00000000	          0.00000000	          0.00000000	        923.08879655	        308.19529462	        180.80711318	        908.62137037	        392.61998311	        194.14068836	        741.88283284	        313.68149297	        554.64112640	
          7.54000000	          0.00000000	          0.00000000	        485.70960625	        411.30293613	        310.33753327	          0.00000000	          0.00000000	          0.00000000	          0.00000000	          0.00000000	          0.00000000	          0.00000000	          0.00000000	          0.00000000	          0.00000000	          0.00000000	          0.00000000	          0.00000000	          0.00000000	        -23.75223732	         -6.51739645	         10.26913166	         59.97847366	        -30.64335632	         51.39037323	         87.60411072	         79.46869659	          0.00000000	          0.00000000	          0.00000000	          0.00000000	          0.00000000	          0.00000000	          0.00000000	          0.00000000	          0.00000000	        920.93342730	        308.08885584	        181.15129408	        906.62219986	        392.35044462	        194.57445937	        739.74837672	        313.82233943	        555.29515648	
          7.55000000	          0.00000000	          0.00000000	        484.89549831	        411.83346708	        310.49707688	          0.00000000	          0.00000000	          0.00000000	          0.00000000	          0.00000000	          0.00000000	          0.00000000	          0.00000000	          0.00000000	          0.00000000	          0.00000000	          0.00000000	          0.00000000	          0.00000000	        -23.62388611	         -6.42250967	         10.21901798	         59.76310349	        -30.61964226	         51.43483734	         87.60806274	         79.46611786	          0.00000000	          0.00000000	          0.00000000	          0.00000000	          0.00000000	          0.00000000	          0.00000000	          0.00000000	          0.00000000	        918.94443647	        308.03069668	        181.56888261	        904.62141773	        392.33567444	        195.12014718	        737.72191116	        313.71617756	        555.36501542	
          7.56000000	          0.00000000	          0.00000000	        484.06499344	        412.37346355	        310.60277057	          0.00000000	          0.00000000	          0.00000000	          0.00000000	          0.00000000	          0.00000000	          0.00000000	          0.00000000	          0.00000000	          0.00000000	          0.00000000	          0.00000000	          0.00000000	          0.00000000	        -23.49187660	         -6.37004089	         10.17838097	         59.55183411	        -30.55555916	         51.44366074	         87.56527710	         79.66072845	          0.00000000	          0.00000000	          0.00000000	          0.00000000	          0.00000000	          0.00000000	          0.00000000	          0.00000000	          0.00000000	        917.00957706	        308.12378256	        181.99119704	        902.78338025	        392.46833364	        195.47968101	        735.61837800	        313.89040446	        555.84904505	
          7.57000000	          0.00000000	          0.00000000	        483.12900850	        412.80378486	        310.67361069	          0.00000000	          0.00000000	          0.00000000	          0.00000000	          0.00000000	          0.00000000	          0.00000000	          0.00000000	          0.00000000	          0.00000000	          0.00000000	          0.00000000	          0.00000000	          0.00000000	        -23.39300919	         -6.32979870	         10.13949585	         59.38616562	        -30.55031967	         51.43459320	         87.58496094	         79.80583191	          0.00000000	          0.00000000	          0.00000000	          0.00000000	          0.00000000	          0.00000000	          0.00000000	          0.00000000	          0.00000000	        915.11853469	        307.91038213	        182.51402876	        900.64961691	        392.38650052	        195.98417336	        733.61721583	        313.93513413	        556.34117225	
